<svg xmlns="http://www.w3.org/2000/svg" viewBox="0 0 220 48" width="220" height="48">
  <defs>
    <linearGradient id="lg" x1="0" x2="1" y1="0" y2="1">
      <stop offset="0" stop-color="#4f46e5"/>
      <stop offset="1" stop-color="#06b6d4"/>
    </linearGradient>
  </defs>
  <rect x="2" y="6" width="36" height="36" rx="10" fill="url(#lg)"/>
  <path fill="#fff" d="M28.6 15.5c-1.8-1.1-3.9-1.6-6.3-1.5-4.5.2-7.9 2.6-7.9 5.9 0 3 2.4 4.6 6 5.1l3.5.6c2 .2 2.9.9 2.9 2 0 1.4-1.7 2.4-4.3 2.5-2.5.1-4.5-.4-6.3-1.6l-2.1 3.4c2.1 1.5 5 2.2 8.2 2.1 5.5-.2 9.4-3 9.4-6.7 0-3.2-2.5-4.9-6.4-5.5l-3.3-.5c-2.1-.3-3.2-.9-3.2-2 0-1.4 1.6-2.4 4-2.5 2.2-.1 4 .4 5.6 1.3l2-3.2z"/>
  <g transform="translate(48,12)" fill="#0f172a">
    <path d="M3 21V3h15v4H7v3h9v4H7v7h11v4H3z"/>
    <path d="M28 21h-5V9h5v2c1-1.6 2.6-2.5 4.8-2.5 3.6 0 6.2 2.6 6.2 6.9V21h-5v-5.1c0-2.2-1.3-3.6-3.2-3.6-2 0-3.3 1.4-3.3 3.6V21z"/>
    <path d="M55.5 21c-4.5 0-7.6-3-7.6-7.3s3.1-7.3 7.7-7.3c4.6 0 7.6 3 7.6 7.3s-3.1 7.3-7.7 7.3zm0-4c1.8 0 3.2-1.5 3.2-3.3S57.3 10 55.5 10s-3.2 1.5-3.2 3.3 1.4 3.7 3.2 3.7z"/>
    <path d="M77 21h-5V9h5v2c1.1-1.6 2.8-2.5 5-2.5 3.9 0 6.6 2.6 6.6 6.9V21h-5v-5.1c0-2.2-1.3-3.6-3.3-3.6-2.1 0-3.3 1.4-3.3 3.6V21z"/>
    <path d="M105.2 21c-4.3 0-7.3-3-7.3-7.3s3-7.3 7.1-7.3c2.2 0 4 .8 5.2 2.3V3h5v18h-5v-2.2c-1.2 1.5-3 2.2-5 2.2zm1-4c2 0 3.6-1.5 3.6-3.3s-1.6-3.3-3.6-3.3-3.6 1.5-3.6 3.3 1.6 3.3 3.6 3.3z"/>
  </g>
</svg>
