<svg xmlns="http://www.w3.org/2000/svg" viewBox="0 0 64 64">
  <defs>
    <linearGradient id="g" x1="0" x2="1" y1="0" y2="1">
      <stop offset="0" stop-color="#4f46e5"/>
      <stop offset="1" stop-color="#06b6d4"/>
    </linearGradient>
  </defs>
  <rect width="64" height="64" rx="14" fill="url(#g)"/>
  <path fill="#fff" d="M38.8 18.5c-2.6-1.6-5.7-2.3-9.2-2.1-6.6.3-11.6 3.9-11.6 8.8 0 4.4 3.6 6.8 8.9 7.6l5.1.8c2.9.4 4.3 1.3 4.3 2.9 0 2.1-2.5 3.6-6.3 3.8-3.6.2-6.6-.6-9.1-2.3l-3 5.1c3.1 2.2 7.3 3.3 11.9 3.1 7.9-.3 13.6-4.4 13.6-9.7 0-4.7-3.7-7-9.3-7.9l-4.7-.7c-3.1-.5-4.7-1.3-4.7-3 0-2 2.3-3.4 5.8-3.6 3.1-.1 5.8.5 8 1.9l3.2-5.1z"/>
</svg>
